<?xml version="1.0" encoding="iso-8859-1"?>
<!-- Generator: Adobe Illustrator 19.0.0, SVG Export Plug-In . SVG Version: 6.00 Build 0)  -->
<svg version="1.1" id="Layer_1" xmlns="http://www.w3.org/2000/svg" xmlns:xlink="http://www.w3.org/1999/xlink" x="0px" y="0px"
	 viewBox="0 0 512.001 512.001" style="enable-background:new 0 0 512.001 512.001;" xml:space="preserve">
<path style="fill:#FFEEA4;" d="M300.829,32.085c-7.194,0-14.073,1.332-20.42,3.744C264.059,14.074,238.04,0,208.731,0
	s-55.328,14.074-71.677,35.828c-6.348-2.411-13.228-3.744-20.42-3.744c-31.771,0-57.526,25.755-57.526,57.526l149.624,22.505
	L358.357,89.61C358.356,57.84,332.6,32.085,300.829,32.085z"/>
<path style="fill:#FFAA0E;" d="M413.88,135.79h-43.673V89.611H47.253v349.975c-14.453,5.132-24.806,18.921-24.806,35.134
	c0,20.589,16.691,37.28,37.28,37.28h298.005c20.589,0,37.28-16.691,37.28-37.28c0-16.213-10.353-30.002-24.806-35.134v-46.179
	h43.673c41.726,0,75.672-33.946,75.672-75.672V211.463C489.552,169.736,455.606,135.79,413.88,135.79z M444.541,317.735
	c0,16.906-13.755,30.661-30.661,30.661h-43.673V180.801h43.673c16.906,0,30.661,13.755,30.661,30.661V317.735z"/>
<polygon style="fill:#FFFFFF;" points="336.45,123.369 81.012,123.369 81.012,214.56 208.731,237.065 336.45,214.56 "/>
<path style="fill:#FE5D26;" d="M81.012,214.56v191.269c0,18.567,15.191,33.758,33.758,33.758h187.921
	c18.567,0,33.758-15.191,33.758-33.758V214.56H81.012z"/>
<g>
	<circle style="fill:#FE841A;" cx="294.249" cy="314.728" r="8.44"/>
	<circle style="fill:#FE841A;" cx="294.249" cy="348.486" r="8.44"/>
</g>
<g>
</g>
<g>
</g>
<g>
</g>
<g>
</g>
<g>
</g>
<g>
</g>
<g>
</g>
<g>
</g>
<g>
</g>
<g>
</g>
<g>
</g>
<g>
</g>
<g>
</g>
<g>
</g>
<g>
</g>
</svg>
